<svg width="1269" height="254" viewBox="0 0 1269 254" fill="none" xmlns="http://www.w3.org/2000/svg">
<mask id="mask0_821_43" style="mask-type:alpha" maskUnits="userSpaceOnUse" x="0" y="46" width="115" height="147">
<path d="M112.397 87.6567C112.008 86.3242 111.556 85.0061 111.054 83.7113C111.543 85.0061 111.995 86.3242 112.397 87.6567Z" fill="white"/>
<path d="M43.9902 48.6548C45.233 48.3535 46.5009 48.0899 47.7689 47.8639C46.4884 48.0737 45.233 48.3409 43.9902 48.6548Z" fill="white"/>
<path d="M9.93506 72.8035C10.1485 72.4645 10.3619 72.1363 10.6004 71.8099L9.93506 72.8035Z" fill="white"/>
<path d="M19.0023 62.1293C18.6436 62.4431 18.2742 62.7946 17.9263 63.1461L19.0023 62.1293Z" fill="white"/>
<path d="M21.0093 60.3461C21.4989 59.9318 22.0028 59.5175 22.5175 59.1284C23.0699 58.689 23.6348 58.2622 24.1997 57.8605C24.7646 57.4588 25.3546 57.0301 25.9446 56.641C26.5346 56.2518 27.1246 55.8627 27.7272 55.4861C28.3298 55.1094 28.9324 54.7579 29.5493 54.41" fill="white"/>
<path d="M114.933 136.401L114.883 120.041L114.833 104.028C114.833 103.387 114.82 102.747 114.795 102.119C114.782 101.793 114.77 101.477 114.745 101.164C114.72 100.536 114.682 99.9083 114.619 99.2806C114.621 99.23 114.617 99.1794 114.607 99.1299C114.556 98.5405 114.497 97.9505 114.427 97.3599C114.415 97.1452 114.389 96.9314 114.352 96.7197C114.339 96.5816 114.327 96.456 114.302 96.318C114.226 95.8158 114.151 95.3137 114.076 94.8241C114.063 94.7488 114.051 94.6609 114.038 94.5856C113.913 93.8431 113.775 93.1024 113.611 92.3743C113.448 91.6462 113.31 90.9683 113.134 90.2779C112.984 89.6753 112.82 89.0728 112.645 88.4845C112.582 88.2084 112.494 87.9322 112.406 87.6686C112.005 86.3361 111.553 85.018 111.063 83.7232C111.038 83.6604 111.013 83.5851 110.988 83.5223C110.724 82.8444 110.45 82.1916 110.172 81.5263C109.894 80.8609 109.557 80.1579 109.23 79.4783C108.904 78.7986 108.576 78.135 108.224 77.4697L107.236 75.6925C106.809 74.9518 106.357 74.2112 105.905 73.4956C105.529 72.9181 105.152 72.3514 104.775 71.7865C104.76 71.7721 104.747 71.7551 104.738 71.7363C103.922 70.5563 103.056 69.3888 102.139 68.2715C102.087 68.2088 102.037 68.1334 101.989 68.0707C101.535 67.5327 101.092 67.0036 100.631 66.4764C100.141 65.9115 99.6393 65.3717 99.1246 64.8301C98.6601 64.3405 98.1956 63.8634 97.706 63.3954C97.6027 63.277 97.4893 63.1678 97.3671 63.069C96.9403 62.6422 96.5009 62.2405 96.0615 61.8387C95.6221 61.437 95.1451 61.0102 94.6663 60.621C94.365 60.3574 94.0637 60.0938 93.7499 59.8553C93.3607 59.5289 92.959 59.215 92.5573 58.9138C92.0677 58.5121 91.5655 58.148 91.0508 57.7822C90.7244 57.5311 90.3855 57.3051 90.0466 57.0792C89.7076 56.8532 89.3561 56.5896 88.9921 56.3618C88.4272 55.9852 87.8622 55.6337 87.2955 55.2858C86.7288 54.9379 86.1783 54.6205 85.6134 54.3066C84.7848 53.8421 83.9437 53.3902 83.0901 52.9634C81.885 52.3483 80.6404 51.7959 79.385 51.2812C77.8654 50.6416 76.3112 50.0719 74.7223 49.5721H74.7097C73.9691 49.3462 73.2159 49.1202 72.4483 48.9193C72.4357 48.9319 72.4357 48.9319 72.4357 48.9193C71.6323 48.7185 70.8414 48.5176 70.0255 48.3293C69.6237 48.2415 69.2095 48.1661 68.7952 48.0783C67.4861 47.8152 66.1649 47.6018 64.8319 47.438L63.4761 47.2874C62.9865 47.2497 62.5095 47.1995 62.0324 47.1619C61.1537 47.0991 60.2749 47.0489 59.3962 47.0238C59.007 47.0112 58.6179 46.9987 58.2233 46.9987H57.1688C56.7671 46.9987 56.378 47.0112 55.9888 47.0238C55.0921 47.0489 54.2313 47.0865 53.3526 47.1619C52.8755 47.1995 52.3985 47.2497 51.9089 47.2874C50.953 47.3878 49.999 47.5134 49.0575 47.6461C48.6306 47.7088 48.2038 47.7842 47.777 47.8595C46.5091 48.0854 45.2412 48.3491 43.9984 48.6503C43.9858 48.6378 43.9858 48.6503 43.9733 48.6503C43.1932 48.8297 42.4274 49.0521 41.6616 49.278H41.6491C40.8827 49.504 40.1295 49.7431 39.3894 49.9954C38.6864 50.2339 37.9834 50.4867 37.293 50.7504H37.2804C36.6151 51.0014 35.948 51.2776 35.2952 51.5538H35.2683C33.9627 52.1187 32.6697 52.7213 31.4144 53.3866C30.7867 53.713 30.159 54.052 29.5439 54.4035C28.9288 54.755 28.3244 55.1208 27.7218 55.4795C27.1193 55.8381 26.5167 56.2452 25.9392 56.6344C25.3618 57.0236 24.7717 57.4378 24.1943 57.8539C23.6168 58.2699 23.0645 58.6824 22.5121 59.1218C21.9956 59.5235 21.4935 59.9252 21.0039 60.3395C20.8245 60.5027 20.6273 60.6533 20.439 60.8291C20.0803 61.1178 19.7485 61.4191 19.4096 61.7258C19.2623 61.8453 19.1238 61.9754 18.9953 62.1149C18.6366 62.4413 18.2672 62.7803 17.9193 63.1318C17.4799 63.546 17.0406 63.9854 16.6137 64.4373C16.3124 64.7512 16.0112 65.0668 15.717 65.3806C15.3404 65.7823 14.9764 66.1841 14.6231 66.5983C14.2339 67.0503 13.8448 67.495 13.4682 67.9667C13.4556 67.9667 13.4556 67.9667 13.4556 67.9792C13.1167 68.3935 12.7777 68.8078 12.4513 69.2346C12.2003 69.561 11.9492 69.8999 11.6981 70.2389L11.2839 70.8038C11.0453 71.1302 10.8194 71.4566 10.5934 71.7955C10.3674 72.1344 10.1415 72.4501 9.92807 72.789C9.78998 72.9773 9.677 73.1656 9.5694 73.3539C9.33088 73.7126 9.11747 74.0569 8.90406 74.4084C8.69065 74.7599 8.47724 75.1114 8.27639 75.4844C8.15085 75.6638 8.05042 75.8611 7.94999 76.0494C7.73658 76.408 7.53393 76.7667 7.34563 77.1415C7.18243 77.4177 7.03179 77.7064 6.8937 77.9952C6.69285 78.3718 6.49199 78.7609 6.31624 79.1501C6.20326 79.3635 6.09028 79.5895 5.98985 79.8172C5.81051 80.1938 5.63118 80.5704 5.4626 80.9596C5.34962 81.2232 5.22408 81.4976 5.12365 81.763C4.94432 82.1396 4.78471 82.5288 4.63407 82.9179C4.52108 83.1941 4.4081 83.4828 4.30767 83.759C4.15703 84.1356 4.01894 84.5248 3.88085 84.9139C3.79298 85.165 3.70152 85.4035 3.61723 85.6546C3.47914 86.0563 3.34105 86.458 3.21552 86.8597C3.08998 87.2615 2.98955 87.6022 2.88912 87.9788C2.70082 88.5814 2.53045 89.1965 2.37443 89.8116C2.26145 90.2384 2.14847 90.6527 2.06059 91.0795C1.91174 91.6875 1.78621 92.3026 1.66067 92.9177C1.51003 93.6351 1.38449 94.3632 1.27151 95.0913C1.15853 95.7315 1.07065 96.3717 0.995333 97.012C0.704526 99.3394 0.553612 101.682 0.543405 104.028L0.477051 120.982L0.527265 136.339L32.1191 118.597C32.7889 118.143 33.3555 117.554 33.7822 116.866C34.209 116.179 34.4861 115.41 34.5958 114.608V114.583C34.6205 114.341 34.6331 114.098 34.6334 113.855L34.646 113.767L34.6711 104.124C34.6903 98.4253 36.8173 92.9347 40.6424 88.7098C44.4676 84.485 49.7206 81.8247 55.3898 81.2411C55.7288 81.2035 56.0552 81.1784 56.3941 81.1658C56.6577 81.1407 56.9321 81.1407 57.2101 81.1407C57.3293 81.13 57.4491 81.1258 57.5688 81.1282C57.7696 81.1282 57.9705 81.1282 58.1713 81.1407C58.4493 81.1407 58.7255 81.1533 58.9891 81.1658L59.9934 81.2411C65.6603 81.8267 70.9105 84.487 74.734 88.7105C78.5575 92.9339 80.6842 98.4221 80.7049 104.119L80.73 113.762L80.7426 113.85C80.7426 114.055 80.7552 114.261 80.7803 114.465C80.8641 115.291 81.1278 116.088 81.5529 116.8C81.978 117.513 82.5541 118.124 83.2408 118.59L114.833 136.331L114.933 136.401Z" fill="white"/>
<path d="M74.1055 170.103L114.277 192.667C114.463 190.768 114.55 188.861 114.535 186.953L114.435 153.615L85.3571 137.279C77.9274 133.096 69.6542 130.633 61.1467 130.071C61.0086 130.059 60.8705 130.046 60.7199 130.046L59.2385 129.971C58.0334 129.933 56.8157 129.933 55.598 129.971L54.1149 130.046C53.9721 130.036 53.8287 130.045 53.6881 130.071C45.1833 130.649 36.9134 133.111 29.4777 137.279L0.410833 153.615L0.297852 186.953C0.297852 188.861 0.385726 190.771 0.57403 192.667L40.7454 170.103L43.6578 168.457L45.4278 167.381C48.6074 165.463 52.2053 164.347 55.9118 164.129C56.3889 164.092 56.8785 164.079 57.3555 164.079H57.4936C57.9706 164.079 58.4477 164.104 58.9283 164.129C59.4089 164.154 59.8447 164.192 60.2966 164.255C60.7856 164.317 61.2752 164.392 61.7654 164.481C62.1438 164.543 62.5078 164.631 62.8844 164.719C62.9698 164.733 63.0538 164.754 63.1355 164.782C63.4494 164.857 63.7757 164.945 64.0896 165.046C64.2528 165.083 64.416 165.133 64.5666 165.184C64.8805 165.284 65.2068 165.397 65.5207 165.523C66.0354 165.702 66.5375 165.912 67.0397 166.138C67.3786 166.288 67.705 166.452 68.0314 166.615C68.0816 166.64 68.1444 166.678 68.1946 166.703C68.6089 166.916 69.0231 167.155 69.4248 167.393L71.1967 168.469L74.1055 170.103Z" fill="white"/>
<path d="M61.146 130.072C65.8548 130.386 70.5067 131.28 74.9961 132.735L61.146 130.072Z" fill="white"/>
<path d="M43.6562 168.456L46.2046 167.021C49.6119 165.109 53.4489 164.094 57.3558 164.071C53.1513 164.066 49.0258 165.212 45.4263 167.385L43.6562 168.456Z" fill="white"/>
</mask>
<g mask="url(#mask0_821_43)">
<circle cx="63.8399" cy="133.645" r="87.9308" transform="rotate(-47.3464 63.8399 133.645)" fill="url(#paint0_linear_821_43)"/>
<circle cx="60.0509" cy="157.67" r="87.9308" transform="rotate(162.129 60.0509 157.67)" fill="url(#paint1_linear_821_43)" fill-opacity="0.6"/>
</g>
<path d="M162.344 60.5612H198.642C237.485 60.5612 263.607 84.8169 263.607 121.115C263.607 157.075 237.655 181.5 198.473 181.5H162.344V60.5612ZM199.321 158.601C223.916 158.601 239.69 143.845 239.69 121.285C239.69 97.8776 224.425 83.6295 199.321 83.6295H186.43V158.601H199.321ZM275.88 139.774C275.88 113.822 293.012 95.1637 316.928 95.1637C341.184 95.1637 357.807 114.161 357.807 141.809V148.764H298.27C300.305 157.584 307.599 162.672 318.116 162.672C324.9 162.672 328.632 161.485 333.381 156.905L351.7 168.439C342.88 179.125 332.024 183.875 317.776 183.875C293.351 183.875 275.88 165.556 275.88 139.774ZM298.949 130.105H335.247C333.212 121.285 327.445 115.857 317.437 115.857C307.599 115.857 300.984 121.624 298.949 130.105ZM401.078 184.384C387.339 184.384 373.43 178.277 364.949 168.948L378.858 154.191C387.169 161.485 392.767 163.86 404.301 163.86C409.559 163.86 417.022 160.976 417.022 155.888C417.022 149.103 408.202 150.12 393.615 146.389C377.331 142.318 369.529 133.328 369.529 122.133C369.529 106.189 382.929 95.1637 404.301 95.1637C415.326 95.1637 426.691 98.8953 435.002 105.171L426.012 122.472C417.022 117.214 410.746 115.688 403.792 115.688C395.311 115.688 390.731 118.062 390.731 121.455C390.731 124.847 394.124 126.543 408.711 128.918C429.914 133.158 438.055 141.639 438.055 155.888C438.055 173.019 424.486 184.384 401.078 184.384ZM464.095 84.308C455.953 84.308 449.168 78.0321 449.168 70.06C449.168 62.0878 455.783 55.4727 463.586 55.4727C471.897 55.4727 478.512 61.9182 478.512 70.06C478.512 77.8625 471.727 84.308 464.095 84.308ZM453.069 97.0295H475.459V181.5H453.069V97.0295ZM573.132 97.0295V112.465H564.312C567.365 117.723 569.231 123.999 569.231 130.953C569.231 152.326 552.608 168.1 530.897 168.1H529.879C518.854 167.931 516.31 169.288 516.31 172.171C516.31 175.733 522.416 176.92 538.36 175.394C559.223 173.528 570.418 181.839 570.418 196.936C570.418 214.406 554.304 224.584 530.218 224.584C514.105 224.584 500.026 220.004 492.563 211.523L505.624 196.596C511.051 202.533 520.72 204.908 530.049 204.568C541.074 204.229 549.555 201.515 549.555 196.257C549.555 192.017 544.127 191.508 533.78 192.186L527.165 192.525C506.981 193.543 496.294 185.232 496.294 173.189C496.294 166.574 499.517 161.824 504.945 158.601C497.312 151.817 492.732 141.979 492.732 130.784C492.732 110.429 509.355 94.994 530.897 94.994C538.699 94.994 545.654 96.8599 551.591 100.252C556.679 97.8776 563.973 97.0295 573.132 97.0295ZM530.897 147.576C540.396 147.576 546.841 141.639 546.841 131.123C546.841 120.437 540.565 114.67 531.067 114.67C521.737 114.67 514.953 120.437 514.953 130.784C514.953 141.639 521.737 147.576 530.897 147.576ZM587.363 97.0295H609.583V102.966C615.181 97.708 624.34 94.994 630.955 94.994C649.444 94.994 661.148 107.037 661.148 130.105V181.5H639.097V132.48C639.097 118.741 632.652 116.197 627.902 116.197C617.895 116.197 609.583 121.624 609.583 140.961V181.5H587.363V97.0295Z" fill="#11082D"/>
<path d="M799.334 188H780.167L735.896 126.767L718.595 144.408V188H702.99V67.0612H718.595V123.205L774.23 67.0612H794.924L747.431 115.064L799.334 188ZM853.892 118.117C847.786 115.572 846.429 115.403 843.376 115.403C829.806 115.403 824.887 128.294 824.887 140.167V188H810.469V103.529H824.887V113.707C829.467 106.413 837.778 101.494 847.107 101.494C851.857 101.494 856.436 102.851 861.186 105.735L853.892 118.117ZM865.226 146.104C865.226 119.813 881.849 101.494 906.105 101.494C930.36 101.494 946.474 119.813 946.474 147.291V149.666H879.813C880.662 166.458 890.499 176.975 906.953 176.975C916.791 176.975 924.593 172.056 930.699 162.727L941.894 170.699C933.244 183.929 921.54 190.205 906.274 190.205C881.849 190.205 865.226 172.056 865.226 146.104ZM880.831 137.453H931.208C930.021 123.714 919.504 114.555 906.274 114.555C892.365 114.555 882.358 124.223 880.831 137.453ZM955.668 164.762C955.668 146.613 967.711 138.471 987.896 137.114L1014.87 134.909V129.651C1014.87 119.474 1005.2 114.894 995.02 114.894C986.878 114.894 976.701 115.403 966.693 123.205L960.926 112.35C967.541 107.77 975.174 101.664 995.02 101.664C1015.54 101.664 1028.94 111.841 1028.94 131.347V188H1014.53L1014.7 175.957C1013.51 180.876 1002.31 190.375 985.351 190.375C969.916 190.375 955.668 180.537 955.668 164.762ZM987.556 176.975C1002.14 176.975 1014.53 167.476 1014.53 159.334V148.139L987.217 150.345C973.308 151.532 969.916 158.317 969.916 163.575C969.916 172.056 978.227 176.975 987.556 176.975ZM1054.13 103.529V73.1676L1068.54 67.0612V103.529H1090.08V116.76H1068.54V156.281C1068.54 177.144 1075.67 178.841 1089.24 174.6L1093.48 187.152C1089.24 189.187 1083.81 190.375 1079.57 190.375C1060.57 190.375 1054.13 179.01 1054.13 160.861V116.76H1044.29V103.529H1054.13ZM1115.95 87.5852C1110.01 87.5852 1105.6 83.0055 1105.6 77.2384C1105.6 71.8106 1110.35 67.0612 1115.78 67.0612C1121.71 67.0612 1126.12 71.641 1126.12 77.2384C1126.12 83.0055 1121.54 87.5852 1115.95 87.5852ZM1108.82 103.529H1123.07V188H1108.82V103.529ZM1134.28 103.529H1150.22L1176.01 162.218L1201.28 103.529H1217.05L1178.38 188H1173.12L1134.28 103.529Z" fill="#11082D"/>
<path d="M1225.94 176.962C1225.94 173.283 1227.27 170.111 1229.94 167.447C1232.73 164.656 1235.96 163.26 1239.64 163.26C1243.57 163.26 1246.87 164.593 1249.54 167.257C1252.2 169.921 1253.53 173.156 1253.53 176.962C1253.53 180.895 1252.2 184.257 1249.54 187.049C1246.87 189.713 1243.64 191.045 1239.83 191.045C1236.03 191.045 1232.73 189.649 1229.94 186.858C1227.27 184.067 1225.94 180.769 1225.94 176.962Z" fill="#613ECE"/>
<defs>
<linearGradient id="paint0_linear_821_43" x1="63.8399" y1="45.7143" x2="63.8399" y2="221.576" gradientUnits="userSpaceOnUse">
<stop offset="0.290451" stop-color="#6B05FE"/>
<stop offset="0.910253" stop-color="#6400F5" stop-opacity="0"/>
</linearGradient>
<linearGradient id="paint1_linear_821_43" x1="60.0509" y1="69.7394" x2="60.0509" y2="245.601" gradientUnits="userSpaceOnUse">
<stop offset="0.243575" stop-color="#04B6FE"/>
<stop offset="0.88942" stop-color="white" stop-opacity="0"/>
</linearGradient>
</defs>
</svg>
