<svg width="265" height="336" viewBox="0 0 265 336" fill="none" xmlns="http://www.w3.org/2000/svg">
<mask id="mask0_809_103" style="mask-type:alpha" maskUnits="userSpaceOnUse" x="0" y="0" width="265" height="336">
<path d="M258.23 93.6598C257.334 90.5904 256.292 87.5539 255.136 84.5712C256.264 87.5539 257.305 90.5904 258.23 93.6598Z" fill="white"/>
<path d="M100.65 3.81514C103.513 3.1211 106.434 2.51381 109.354 1.99329C106.405 2.47663 103.513 3.09218 100.65 3.81514Z" fill="white"/>
<path d="M22.1997 59.4435C22.6913 58.6627 23.1829 57.9067 23.7324 57.1548L22.1997 59.4435Z" fill="white"/>
<path d="M43.0866 34.8539C42.2604 35.5769 41.4094 36.3866 40.6079 37.1963L43.0866 34.8539Z" fill="white"/>
<path d="M47.71 30.747C48.8378 29.7927 49.9986 28.8384 51.1843 27.9419C52.4567 26.9298 53.758 25.9466 55.0593 25.0212C56.3607 24.0958 57.7198 23.1085 59.079 22.212C60.4381 21.3155 61.7973 20.4191 63.1854 19.5515C64.5734 18.684 65.9615 17.8743 67.3826 17.0728" fill="white"/>
<path d="M264.073 205.948L263.957 168.259L263.842 131.372C263.842 129.897 263.813 128.422 263.755 126.976C263.726 126.224 263.697 125.497 263.639 124.774C263.582 123.328 263.495 121.882 263.35 120.436C263.355 120.32 263.345 120.203 263.321 120.089C263.206 118.732 263.068 117.372 262.908 116.012C262.879 115.517 262.821 115.025 262.735 114.537C262.706 114.219 262.677 113.93 262.619 113.612C262.445 112.455 262.272 111.298 262.098 110.17C262.07 109.997 262.041 109.794 262.012 109.621C261.723 107.911 261.404 106.204 261.028 104.527C260.653 102.85 260.334 101.288 259.93 99.6979C259.583 98.3098 259.207 96.9217 258.802 95.5667C258.657 94.9305 258.455 94.2943 258.252 93.687C257.327 90.6175 256.286 87.5811 255.158 84.5984C255.1 84.4538 255.042 84.2803 254.985 84.1357C254.377 82.5741 253.745 81.0704 253.105 79.5377C252.465 78.0051 251.688 76.3856 250.936 74.8199C250.184 73.2542 249.428 71.7257 248.618 70.193L246.342 66.099C245.359 64.3928 244.318 62.6866 243.277 61.0383C242.409 59.7081 241.542 58.4026 240.674 57.1013C240.639 57.0681 240.609 57.029 240.587 56.9856C238.708 54.2673 236.712 51.5779 234.601 49.0042C234.482 48.8596 234.366 48.6861 234.254 48.5415C233.209 47.3021 232.189 46.0834 231.127 44.8689C229.999 43.5675 228.842 42.3241 227.657 41.0764C226.587 39.9486 225.517 38.8497 224.389 37.7715C224.151 37.4988 223.89 37.2472 223.608 37.0196C222.625 36.0364 221.613 35.111 220.601 34.1856C219.589 33.2603 218.49 32.277 217.387 31.3806C216.693 30.7733 215.999 30.166 215.276 29.6166C214.379 28.8647 213.454 28.1417 212.528 27.4477C211.401 26.5223 210.244 25.6837 209.058 24.8409C208.306 24.2625 207.526 23.742 206.745 23.2215C205.964 22.701 205.154 22.0937 204.316 21.569C203.014 20.7015 201.713 19.8918 200.408 19.0903C199.102 18.2889 197.834 17.5576 196.533 16.8347C194.624 15.7647 192.686 14.7236 190.72 13.7404C187.944 12.3234 185.077 11.051 182.185 9.86538C178.684 8.39192 175.104 7.07959 171.444 5.92837H171.415C169.709 5.40784 167.974 4.88731 166.206 4.42462C166.177 4.45353 166.177 4.45353 166.177 4.42462C164.326 3.96192 162.504 3.49923 160.624 3.06546C159.699 2.86303 158.745 2.68952 157.79 2.48709C154.775 1.88119 151.731 1.38958 148.66 1.01226L145.537 0.665242C144.409 0.578487 143.311 0.462814 142.212 0.376059C140.187 0.231468 138.163 0.115795 136.139 0.0579586C135.242 0.0290403 134.346 0.00012207 133.437 0.00012207H131.008C130.083 0.00012207 129.186 0.0290403 128.29 0.0579586C126.224 0.115795 124.241 0.20255 122.217 0.376059C121.118 0.462814 120.019 0.578487 118.891 0.665242C116.689 0.896588 114.491 1.18577 112.323 1.49148C111.339 1.63607 110.356 1.80958 109.373 1.98309C106.452 2.50362 103.531 3.1109 100.669 3.80494C100.64 3.77602 100.64 3.80494 100.611 3.80494C98.8136 4.21806 97.0496 4.73032 95.2856 5.25085H95.2567C93.4913 5.77138 91.7562 6.3222 90.0514 6.90332C88.432 7.45277 86.8126 8.03527 85.222 8.64255H85.1931C83.6605 9.22091 82.1237 9.85712 80.6199 10.4933H80.558C77.5505 11.7946 74.5719 13.1827 71.68 14.7154C70.2341 15.4673 68.7882 16.2481 67.3712 17.0578C65.9542 17.8675 64.562 18.7102 63.174 19.5365C61.7859 20.3627 60.3978 21.3005 59.0676 22.197C57.7373 23.0934 56.3782 24.0477 55.0479 25.0062C53.7177 25.9646 52.4453 26.9148 51.1729 27.9269C49.9831 28.8523 48.8264 29.7777 47.6986 30.732C47.2854 31.1079 46.831 31.4549 46.3972 31.8598C45.571 32.5249 44.8067 33.2189 44.0259 33.9254C43.6866 34.2007 43.3676 34.5003 43.0716 34.8218C42.2454 35.5737 41.3944 36.3545 40.5929 37.1642C39.5808 38.1185 38.5687 39.1307 37.5854 40.1717C36.8914 40.8947 36.1974 41.6218 35.5198 42.3447C34.6523 43.2701 33.8137 44.1955 32.9998 45.1498C32.1034 46.1908 31.2069 47.2154 30.3393 48.3019C30.3104 48.3019 30.3104 48.3019 30.3104 48.3308C29.5296 49.2851 28.7488 50.2394 27.997 51.2226C27.4186 51.9745 26.8402 52.7553 26.2619 53.5361L25.3076 54.8374C24.7581 55.5893 24.2376 56.3412 23.7171 57.1219C23.1965 57.9027 22.676 58.6298 22.1844 59.4106C21.8663 59.8444 21.606 60.2782 21.3582 60.7119C20.8087 61.5382 20.3171 62.3314 19.8255 63.1411C19.3339 63.9508 18.8423 64.7605 18.3796 65.6198C18.0904 66.0329 17.8591 66.4873 17.6277 66.9211C17.1361 67.7473 16.6693 68.5736 16.2355 69.437C15.8596 70.0732 15.5125 70.7383 15.1944 71.4034C14.7318 72.271 14.2691 73.1674 13.8642 74.0639C13.6039 74.5555 13.3437 75.076 13.1123 75.6007C12.6992 76.4683 12.2861 77.3358 11.8978 78.2323C11.6375 78.8396 11.3483 79.4716 11.117 80.083C10.7039 80.9506 10.3362 81.8471 9.98916 82.7435C9.72889 83.3797 9.46863 84.0448 9.23728 84.681C8.89026 85.5486 8.57216 86.4451 8.25406 87.3415C8.05163 87.9199 7.84095 88.4693 7.64678 89.0477C7.32868 89.9731 7.01058 90.8985 6.7214 91.8239C6.43221 92.7492 6.20087 93.5342 5.96952 94.4017C5.53575 95.7898 5.14329 97.2068 4.78387 98.6238C4.52361 99.607 4.26334 100.561 4.06092 101.545C3.71803 102.945 3.42885 104.362 3.13966 105.779C2.79264 107.431 2.50346 109.109 2.2432 110.786C1.98293 112.261 1.78051 113.736 1.607 115.21C0.937096 120.572 0.589453 125.969 0.56594 131.372L0.413086 170.428L0.528759 205.803L73.3036 164.933C74.8464 163.888 76.1517 162.53 77.1347 160.947C78.1177 159.364 78.7562 157.592 79.0088 155.746V155.688C79.0658 155.13 79.0947 154.571 79.0955 154.01L79.1244 153.808L79.1823 131.595C79.2265 118.466 84.1261 105.818 92.9378 96.0857C101.749 86.3535 113.85 80.2252 126.91 78.8809C127.691 78.7941 128.442 78.7363 129.223 78.7074C129.831 78.6495 130.463 78.6495 131.103 78.6495C131.378 78.6249 131.653 78.6152 131.929 78.6206C132.392 78.6206 132.855 78.6206 133.317 78.6495C133.958 78.6495 134.594 78.6784 135.201 78.7074L137.515 78.8809C150.569 80.2297 162.663 86.3581 171.471 96.0872C180.279 105.816 185.178 118.459 185.225 131.582L185.283 153.796L185.312 153.998C185.312 154.472 185.341 154.945 185.399 155.415C185.592 157.317 186.2 159.153 187.179 160.795C188.158 162.436 189.485 163.843 191.067 164.917L263.842 205.787L264.073 205.948Z" fill="white"/>
<path d="M170.023 283.582L262.561 335.56C262.991 331.187 263.189 326.793 263.156 322.398L262.925 245.6L195.942 207.969C178.827 198.334 159.769 192.66 140.171 191.366C139.853 191.337 139.535 191.308 139.188 191.308L135.775 191.134C132.999 191.048 130.194 191.048 127.389 191.134L123.973 191.308C123.644 191.285 123.313 191.304 122.989 191.366C103.398 192.695 84.3473 198.367 67.2184 207.969L0.260264 245.6L0 322.398C0 326.794 0.202428 331.194 0.636202 335.56L93.1746 283.582L99.8837 279.789L103.961 277.311C111.285 272.894 119.574 270.323 128.112 269.821C129.211 269.734 130.339 269.705 131.438 269.705H131.756C132.855 269.705 133.953 269.763 135.061 269.821C136.168 269.879 137.172 269.965 138.213 270.11C139.339 270.253 140.467 270.427 141.596 270.631C142.468 270.775 143.306 270.978 144.174 271.18C144.371 271.211 144.564 271.259 144.752 271.325C145.475 271.498 146.227 271.701 146.95 271.932C147.326 272.019 147.702 272.134 148.049 272.25C148.772 272.481 149.524 272.742 150.247 273.031C151.433 273.444 152.589 273.927 153.746 274.448C154.527 274.795 155.279 275.171 156.031 275.547C156.146 275.604 156.291 275.691 156.406 275.749C157.361 276.241 158.315 276.79 159.24 277.34L163.322 279.818L170.023 283.582Z" fill="white"/>
<path d="M140.169 191.366C151.017 192.089 161.733 194.149 172.075 197.501L140.169 191.366Z" fill="white"/>
<path d="M99.8799 279.788L105.75 276.483C113.599 272.08 122.438 269.741 131.438 269.688C121.753 269.677 112.249 272.317 103.957 277.322L99.8799 279.788Z" fill="white"/>
</mask>
<g mask="url(#mask0_809_103)">
<circle cx="146.375" cy="199.598" r="202.557" transform="rotate(-47.3464 146.375 199.598)" fill="url(#paint0_linear_809_103)"/>
<circle cx="137.646" cy="254.942" r="202.557" transform="rotate(162.129 137.646 254.942)" fill="url(#paint1_linear_809_103)" fill-opacity="0.6"/>
</g>
<defs>
<linearGradient id="paint0_linear_809_103" x1="146.375" y1="-2.95901" x2="146.375" y2="402.154" gradientUnits="userSpaceOnUse">
<stop offset="0.290451" stop-color="#6B05FE"/>
<stop offset="0.910253" stop-color="#6400F5" stop-opacity="0"/>
</linearGradient>
<linearGradient id="paint1_linear_809_103" x1="137.646" y1="52.3852" x2="137.646" y2="457.498" gradientUnits="userSpaceOnUse">
<stop offset="0.243575" stop-color="#04B6FE"/>
<stop offset="0.88942" stop-color="white" stop-opacity="0"/>
</linearGradient>
</defs>
</svg>
