<svg width="1269" height="255" viewBox="0 0 1269 255" fill="none" xmlns="http://www.w3.org/2000/svg">
<mask id="mask0_821_19" style="mask-type:alpha" maskUnits="userSpaceOnUse" x="0" y="47" width="115" height="147">
<path d="M112.397 88.5504C112.008 87.2179 111.556 85.8998 111.054 84.605C111.543 85.8998 111.995 87.2179 112.397 88.5504Z" fill="white"/>
<path d="M43.9902 49.5484C45.233 49.2472 46.5009 48.9835 47.7689 48.7576C46.4884 48.9674 45.233 49.2346 43.9902 49.5484Z" fill="white"/>
<path d="M9.93506 73.6971C10.1485 73.3582 10.3619 73.03 10.6004 72.7036L9.93506 73.6971Z" fill="white"/>
<path d="M19.0023 63.0229C18.6436 63.3368 18.2742 63.6883 17.9263 64.0398L19.0023 63.0229Z" fill="white"/>
<path d="M21.0093 61.2397C21.4989 60.8255 22.0028 60.4112 22.5175 60.022C23.0699 59.5827 23.6348 59.1559 24.1997 58.7541C24.7646 58.3524 25.3546 57.9238 25.9446 57.5347C26.5346 57.1455 27.1246 56.7563 27.7272 56.3797C28.3298 56.0031 28.9324 55.6516 29.5493 55.3037" fill="white"/>
<path d="M114.933 137.295L114.883 120.934L114.833 104.921C114.833 104.281 114.82 103.641 114.795 103.013C114.782 102.687 114.77 102.371 114.745 102.057C114.72 101.43 114.682 100.802 114.619 100.174C114.621 100.124 114.617 100.073 114.607 100.024C114.556 99.4342 114.497 98.8442 114.427 98.2536C114.415 98.0389 114.389 97.8251 114.352 97.6133C114.339 97.4753 114.327 97.3497 114.302 97.2116C114.226 96.7095 114.151 96.2073 114.076 95.7178C114.063 95.6424 114.051 95.5546 114.038 95.4792C113.913 94.7368 113.775 93.9961 113.611 93.268C113.448 92.5399 113.31 91.862 113.134 91.1716C112.984 90.569 112.82 89.9664 112.645 89.3782C112.582 89.102 112.494 88.8259 112.406 88.5622C112.005 87.2298 111.553 85.9116 111.063 84.6168C111.038 84.5541 111.013 84.4787 110.988 84.416C110.724 83.7381 110.45 83.0853 110.172 82.42C109.894 81.7546 109.557 81.0516 109.23 80.3719C108.904 79.6923 108.576 79.0287 108.224 78.3634L107.236 76.5862C106.809 75.8455 106.357 75.1048 105.905 74.3893C105.529 73.8118 105.152 73.2451 104.775 72.6802C104.76 72.6658 104.747 72.6488 104.738 72.63C103.922 71.45 103.056 70.2825 102.139 69.1652C102.087 69.1024 102.037 69.0271 101.989 68.9644C101.535 68.4263 101.092 67.8973 100.631 67.3701C100.141 66.8051 99.6393 66.2653 99.1246 65.7237C98.6601 65.2342 98.1956 64.7571 97.706 64.2891C97.6027 64.1707 97.4893 64.0615 97.3671 63.9627C96.9403 63.5358 96.5009 63.1341 96.0615 62.7324C95.6221 62.3307 95.1451 61.9039 94.6663 61.5147C94.365 61.2511 94.0637 60.9875 93.7499 60.749C93.3607 60.4226 92.959 60.1087 92.5573 59.8074C92.0677 59.4057 91.5655 59.0417 91.0508 58.6758C90.7244 58.4248 90.3855 58.1988 90.0466 57.9728C89.7076 57.7469 89.3561 57.4832 88.9921 57.2555C88.4272 56.8789 87.8622 56.5274 87.2955 56.1795C86.7288 55.8316 86.1783 55.5141 85.6134 55.2003C84.7848 54.7358 83.9437 54.2839 83.0901 53.8571C81.885 53.2419 80.6404 52.6896 79.385 52.1749C77.8654 51.5353 76.3112 50.9656 74.7223 50.4658H74.7097C73.9691 50.2398 73.2159 50.0139 72.4483 49.813C72.4357 49.8256 72.4357 49.8256 72.4357 49.813C71.6323 49.6122 70.8414 49.4113 70.0255 49.223C69.6237 49.1351 69.2095 49.0598 68.7952 48.9719C67.4861 48.7089 66.1649 48.4955 64.8319 48.3317L63.4761 48.1811C62.9865 48.1434 62.5095 48.0932 62.0324 48.0555C61.1537 47.9928 60.2749 47.9425 59.3962 47.9174C59.007 47.9049 58.6179 47.8923 58.2233 47.8923H57.1688C56.7671 47.8923 56.378 47.9049 55.9888 47.9174C55.0921 47.9425 54.2313 47.9802 53.3526 48.0555C52.8755 48.0932 52.3985 48.1434 51.9089 48.1811C50.953 48.2815 49.999 48.407 49.0575 48.5397C48.6306 48.6025 48.2038 48.6778 47.777 48.7531C46.5091 48.9791 45.2412 49.2427 43.9984 49.544C43.9858 49.5315 43.9858 49.544 43.9733 49.544C43.1932 49.7234 42.4274 49.9457 41.6616 50.1717H41.6491C40.8827 50.3977 40.1295 50.6368 39.3894 50.889C38.6864 51.1276 37.9834 51.3804 37.293 51.6441H37.2804C36.6151 51.8951 35.948 52.1713 35.2952 52.4475H35.2683C33.9627 53.0124 32.6697 53.615 31.4144 54.2803C30.7867 54.6067 30.159 54.9456 29.5439 55.2971C28.9288 55.6486 28.3244 56.0145 27.7218 56.3731C27.1193 56.7318 26.5167 57.1389 25.9392 57.5281C25.3618 57.9172 24.7717 58.3315 24.1943 58.7476C23.6168 59.1636 23.0645 59.5761 22.5121 60.0155C21.9956 60.4172 21.4935 60.8189 21.0039 61.2332C20.8245 61.3964 20.6273 61.547 20.439 61.7228C20.0803 62.0115 19.7485 62.3128 19.4096 62.6194C19.2623 62.739 19.1238 62.869 18.9953 63.0086C18.6366 63.335 18.2672 63.6739 17.9193 64.0254C17.4799 64.4397 17.0406 64.8791 16.6137 65.331C16.3124 65.6448 16.0112 65.9605 15.717 66.2743C15.3404 66.676 14.9764 67.0777 14.6231 67.492C14.2339 67.9439 13.8448 68.3887 13.4682 68.8603C13.4556 68.8603 13.4556 68.8603 13.4556 68.8729C13.1167 69.2872 12.7777 69.7014 12.4513 70.1282C12.2003 70.4546 11.9492 70.7936 11.6981 71.1325L11.2839 71.6974C11.0453 72.0238 10.8194 72.3502 10.5934 72.6892C10.3674 73.0281 10.1415 73.3437 9.92807 73.6827C9.78998 73.871 9.677 74.0593 9.5694 74.2476C9.33088 74.6063 9.11747 74.9506 8.90406 75.3021C8.69065 75.6536 8.47724 76.0051 8.27639 76.3781C8.15085 76.5575 8.05042 76.7547 7.94999 76.943C7.73658 77.3017 7.53393 77.6604 7.34563 78.0352C7.18243 78.3114 7.03179 78.6001 6.8937 78.8888C6.69285 79.2654 6.49199 79.6546 6.31624 80.0438C6.20326 80.2572 6.09028 80.4831 5.98985 80.7109C5.81051 81.0875 5.63118 81.4641 5.4626 81.8533C5.34962 82.1169 5.22408 82.3913 5.12365 82.6567C4.94432 83.0333 4.78471 83.4225 4.63407 83.8116C4.52108 84.0878 4.4081 84.3765 4.30767 84.6527C4.15703 85.0293 4.01894 85.4185 3.88085 85.8076C3.79298 86.0587 3.70152 86.2972 3.61723 86.5483C3.47914 86.95 3.34105 87.3517 3.21552 87.7534C3.08998 88.1551 2.98955 88.4959 2.88912 88.8725C2.70082 89.4751 2.53045 90.0902 2.37443 90.7053C2.26145 91.1321 2.14847 91.5464 2.06059 91.9732C1.91174 92.5812 1.78621 93.1963 1.66067 93.8114C1.51003 94.5288 1.38449 95.2569 1.27151 95.985C1.15853 96.6252 1.07065 97.2654 0.995333 97.9057C0.704526 100.233 0.553612 102.576 0.543405 104.921L0.477051 121.876L0.527265 137.232L32.1191 119.491C32.7889 119.037 33.3555 118.447 33.7822 117.76C34.209 117.073 34.4861 116.304 34.5958 115.502V115.477C34.6205 115.235 34.6331 114.992 34.6334 114.749L34.646 114.661L34.6711 105.018C34.6903 99.3189 36.8173 93.8283 40.6424 89.6035C44.4676 85.3787 49.7206 82.7184 55.3898 82.1348C55.7288 82.0972 56.0552 82.0721 56.3941 82.0595C56.6577 82.0344 56.9321 82.0344 57.2101 82.0344C57.3293 82.0237 57.4491 82.0195 57.5688 82.0218C57.7696 82.0218 57.9705 82.0218 58.1713 82.0344C58.4493 82.0344 58.7255 82.0469 58.9891 82.0595L59.9934 82.1348C65.6603 82.7203 70.9105 85.3807 74.734 89.6041C78.5575 93.8276 80.6842 99.3157 80.7049 105.013L80.73 114.656L80.7426 114.744C80.7426 114.949 80.7552 115.155 80.7803 115.359C80.8641 116.184 81.1278 116.981 81.5529 117.694C81.978 118.407 82.5541 119.017 83.2408 119.483L114.833 137.225L114.933 137.295Z" fill="white"/>
<path d="M74.1055 170.997L114.277 193.561C114.463 191.662 114.55 189.755 114.535 187.847L114.435 154.508L85.3571 138.173C77.9274 133.99 69.6542 131.527 61.1467 130.965C61.0086 130.953 60.8705 130.94 60.7199 130.94L59.2385 130.865C58.0334 130.827 56.8157 130.827 55.598 130.865L54.1149 130.94C53.9721 130.93 53.8287 130.938 53.6881 130.965C45.1833 131.542 36.9134 134.004 29.4777 138.173L0.410833 154.508L0.297852 187.847C0.297852 189.755 0.385726 191.665 0.57403 193.561L40.7454 170.997L43.6578 169.35L45.4278 168.274C48.6074 166.357 52.2053 165.241 55.9118 165.023C56.3889 164.985 56.8785 164.973 57.3555 164.973H57.4936C57.9706 164.973 58.4477 164.998 58.9283 165.023C59.4089 165.048 59.8447 165.086 60.2966 165.148C60.7856 165.211 61.2752 165.286 61.7654 165.374C62.1438 165.437 62.5078 165.525 62.8844 165.613C62.9698 165.626 63.0538 165.647 63.1355 165.676C63.4494 165.751 63.7757 165.839 64.0896 165.939C64.2528 165.977 64.416 166.027 64.5666 166.077C64.8805 166.178 65.2068 166.291 65.5207 166.416C66.0354 166.596 66.5375 166.805 67.0397 167.031C67.3786 167.182 67.705 167.345 68.0314 167.508C68.0816 167.534 68.1444 167.571 68.1946 167.596C68.6089 167.81 69.0231 168.048 69.4248 168.287L71.1967 169.363L74.1055 170.997Z" fill="white"/>
<path d="M61.146 130.965C65.8548 131.279 70.5067 132.174 74.9961 133.628L61.146 130.965Z" fill="white"/>
<path d="M43.6562 169.349L46.2046 167.915C49.6119 166.003 53.4489 164.988 57.3558 164.965C53.1513 164.96 49.0258 166.106 45.4263 168.279L43.6562 169.349Z" fill="white"/>
</mask>
<g mask="url(#mask0_821_19)">
<circle cx="63.8399" cy="134.539" r="87.9308" transform="rotate(-47.3464 63.8399 134.539)" fill="url(#paint0_linear_821_19)"/>
<circle cx="60.0509" cy="158.564" r="87.9308" transform="rotate(162.129 60.0509 158.564)" fill="url(#paint1_linear_821_19)" fill-opacity="0.6"/>
</g>
<path d="M162.344 61.4549H198.642C237.485 61.4549 263.607 85.7105 263.607 122.009C263.607 157.969 237.655 182.394 198.473 182.394H162.344V61.4549ZM199.321 159.495C223.916 159.495 239.69 144.738 239.69 122.179C239.69 98.7713 224.425 84.5232 199.321 84.5232H186.43V159.495H199.321ZM275.88 140.667C275.88 114.716 293.012 96.0574 316.928 96.0574C341.184 96.0574 357.807 115.055 357.807 142.703V149.657H298.27C300.305 158.477 307.599 163.566 318.116 163.566C324.9 163.566 328.632 162.379 333.381 157.799L351.7 169.333C342.88 180.019 332.024 184.768 317.776 184.768C293.351 184.768 275.88 166.45 275.88 140.667ZM298.949 130.999H335.247C333.212 122.179 327.445 116.751 317.437 116.751C307.599 116.751 300.984 122.518 298.949 130.999ZM401.078 185.277C387.339 185.277 373.43 179.171 364.949 169.842L378.858 155.085C387.169 162.379 392.767 164.753 404.301 164.753C409.559 164.753 417.022 161.87 417.022 156.781C417.022 149.996 408.202 151.014 393.615 147.283C377.331 143.212 369.529 134.222 369.529 123.027C369.529 107.083 382.929 96.0574 404.301 96.0574C415.326 96.0574 426.691 99.789 435.002 106.065L426.012 123.366C417.022 118.108 410.746 116.581 403.792 116.581C395.311 116.581 390.731 118.956 390.731 122.348C390.731 125.741 394.124 127.437 408.711 129.812C429.914 134.052 438.055 142.533 438.055 156.781C438.055 173.913 424.486 185.277 401.078 185.277ZM464.095 85.2017C455.953 85.2017 449.168 78.9258 449.168 70.9536C449.168 62.9815 455.783 56.3663 463.586 56.3663C471.897 56.3663 478.512 62.8119 478.512 70.9536C478.512 78.7561 471.727 85.2017 464.095 85.2017ZM453.069 97.9232H475.459V182.394H453.069V97.9232ZM573.132 97.9232V113.359H564.312C567.365 118.617 569.231 124.893 569.231 131.847C569.231 153.219 552.608 168.994 530.897 168.994H529.879C518.854 168.824 516.31 170.181 516.31 173.065C516.31 176.627 522.416 177.814 538.36 176.287C559.223 174.422 570.418 182.733 570.418 197.829C570.418 215.3 554.304 225.477 530.218 225.477C514.105 225.477 500.026 220.897 492.563 212.416L505.624 197.49C511.051 203.427 520.72 205.801 530.049 205.462C541.074 205.123 549.555 202.409 549.555 197.151C549.555 192.91 544.127 192.401 533.78 193.08L527.165 193.419C506.981 194.437 496.294 186.125 496.294 174.082C496.294 167.467 499.517 162.718 504.945 159.495C497.312 152.71 492.732 142.872 492.732 131.677C492.732 111.323 509.355 95.8877 530.897 95.8877C538.699 95.8877 545.654 97.7535 551.591 101.146C556.679 98.7713 563.973 97.9232 573.132 97.9232ZM530.897 148.47C540.396 148.47 546.841 142.533 546.841 132.017C546.841 121.331 540.565 115.564 531.067 115.564C521.737 115.564 514.953 121.331 514.953 131.677C514.953 142.533 521.737 148.47 530.897 148.47ZM587.363 97.9232H609.583V103.86C615.181 98.6016 624.34 95.8877 630.955 95.8877C649.444 95.8877 661.148 107.931 661.148 130.999V182.394H639.097V133.374C639.097 119.634 632.652 117.09 627.902 117.09C617.895 117.09 609.583 122.518 609.583 141.855V182.394H587.363V97.9232Z" fill="white"/>
<path d="M799.334 188.894H780.167L735.896 127.661L718.595 145.302V188.894H702.99V67.9549H718.595V124.099L774.23 67.9549H794.924L747.431 115.957L799.334 188.894ZM853.892 119.01C847.786 116.466 846.429 116.297 843.376 116.297C829.806 116.297 824.887 129.188 824.887 141.061V188.894H810.469V104.423H824.887V114.6C829.467 107.307 837.778 102.388 847.107 102.388C851.857 102.388 856.436 103.745 861.186 106.628L853.892 119.01ZM865.226 146.998C865.226 120.707 881.849 102.388 906.105 102.388C930.36 102.388 946.474 120.707 946.474 148.185V150.56H879.813C880.662 167.352 890.499 177.869 906.953 177.869C916.791 177.869 924.593 172.95 930.699 163.62L941.894 171.593C933.244 184.823 921.54 191.099 906.274 191.099C881.849 191.099 865.226 172.95 865.226 146.998ZM880.831 138.347H931.208C930.021 124.608 919.504 115.448 906.274 115.448C892.365 115.448 882.358 125.117 880.831 138.347ZM955.668 165.656C955.668 147.507 967.711 139.365 987.896 138.008L1014.87 135.803V130.545C1014.87 120.367 1005.2 115.788 995.02 115.788C986.878 115.788 976.701 116.297 966.693 124.099L960.926 113.243C967.541 108.664 975.174 102.557 995.02 102.557C1015.54 102.557 1028.94 112.735 1028.94 132.241V188.894H1014.53L1014.7 176.851C1013.51 181.77 1002.31 191.268 985.351 191.268C969.916 191.268 955.668 181.431 955.668 165.656ZM987.556 177.869C1002.14 177.869 1014.53 168.37 1014.53 160.228V149.033L987.217 151.238C973.308 152.426 969.916 159.21 969.916 164.469C969.916 172.95 978.227 177.869 987.556 177.869ZM1054.13 104.423V74.0612L1068.54 67.9549V104.423H1090.08V117.654H1068.54V157.175C1068.54 178.038 1075.67 179.734 1089.24 175.494L1093.48 188.046C1089.24 190.081 1083.81 191.268 1079.57 191.268C1060.57 191.268 1054.13 179.904 1054.13 161.755V117.654H1044.29V104.423H1054.13ZM1115.95 88.4789C1110.01 88.4789 1105.6 83.8992 1105.6 78.1321C1105.6 72.7043 1110.35 67.9549 1115.78 67.9549C1121.71 67.9549 1126.12 72.5347 1126.12 78.1321C1126.12 83.8992 1121.54 88.4789 1115.95 88.4789ZM1108.82 104.423H1123.07V188.894H1108.82V104.423ZM1134.28 104.423H1150.22L1176.01 163.112L1201.28 104.423H1217.05L1178.38 188.894H1173.12L1134.28 104.423Z" fill="white"/>
<path d="M1225.94 177.856C1225.94 174.177 1227.27 171.005 1229.94 168.341C1232.73 165.55 1235.96 164.154 1239.64 164.154C1243.57 164.154 1246.87 165.486 1249.54 168.151C1252.2 170.815 1253.53 174.05 1253.53 177.856C1253.53 181.789 1252.2 185.151 1249.54 187.942C1246.87 190.607 1243.64 191.939 1239.83 191.939C1236.03 191.939 1232.73 190.543 1229.94 187.752C1227.27 184.961 1225.94 181.662 1225.94 177.856Z" fill="#613ECE"/>
<defs>
<linearGradient id="paint0_linear_821_19" x1="63.8399" y1="46.6081" x2="63.8399" y2="222.47" gradientUnits="userSpaceOnUse">
<stop offset="0.290451" stop-color="#6B05FE"/>
<stop offset="0.910253" stop-color="#6400F5" stop-opacity="0"/>
</linearGradient>
<linearGradient id="paint1_linear_821_19" x1="60.0509" y1="70.6332" x2="60.0509" y2="246.495" gradientUnits="userSpaceOnUse">
<stop offset="0.243575" stop-color="#04B6FE"/>
<stop offset="0.88942" stop-color="white" stop-opacity="0"/>
</linearGradient>
</defs>
</svg>
