<svg width="483" height="579" viewBox="0 0 483 579" fill="none" xmlns="http://www.w3.org/2000/svg">
<mask id="mask0_811_305" style="mask-type:alpha" maskUnits="userSpaceOnUse" x="99" y="0" width="286" height="362">
<path d="M378.109 101.061C377.143 97.7527 376.021 94.4795 374.774 91.2642C375.99 94.4795 377.112 97.7527 378.109 101.061Z" fill="white"/>
<path d="M208.241 4.21099C211.327 3.46283 214.476 2.80819 217.624 2.24707C214.445 2.76811 211.327 3.43165 208.241 4.21099Z" fill="white"/>
<path d="M123.673 64.1771C124.203 63.3354 124.733 62.5205 125.326 61.71L123.673 64.1771Z" fill="white"/>
<path d="M146.19 37.6704C145.299 38.4497 144.382 39.3226 143.518 40.1954L146.19 37.6704Z" fill="white"/>
<path d="M151.173 33.2429C152.389 32.2142 153.64 31.1855 154.919 30.2191C156.29 29.1281 157.693 28.0682 159.096 27.0706C160.499 26.0731 161.964 25.0087 163.429 24.0424C164.894 23.076 166.359 22.1096 167.855 21.1744C169.352 20.2392 170.848 19.3664 172.38 18.5024" fill="white"/>
<path d="M384.408 222.105L384.283 181.478L384.159 141.714C384.159 140.124 384.127 138.534 384.065 136.975C384.034 136.165 384.003 135.381 383.94 134.602C383.878 133.043 383.784 131.485 383.629 129.926C383.634 129.8 383.623 129.675 383.597 129.552C383.473 128.088 383.324 126.623 383.152 125.156C383.121 124.623 383.058 124.092 382.965 123.567C382.934 123.224 382.903 122.912 382.84 122.569C382.653 121.322 382.466 120.075 382.279 118.859C382.248 118.672 382.217 118.454 382.186 118.267C381.874 116.423 381.531 114.584 381.126 112.776C380.721 110.968 380.378 109.285 379.941 107.57C379.567 106.074 379.162 104.578 378.725 103.117C378.57 102.431 378.351 101.745 378.133 101.091C377.136 97.7818 376.013 94.5086 374.798 91.2933C374.735 91.1374 374.673 90.9504 374.611 90.7945C373.956 89.1112 373.275 87.4902 372.584 85.838C371.894 84.1858 371.057 82.4401 370.246 80.7523C369.436 79.0645 368.621 77.4167 367.748 75.7646L365.294 71.3513C364.234 69.5121 363.112 67.6729 361.99 65.896C361.055 64.462 360.12 63.0548 359.184 61.652C359.146 61.6162 359.114 61.574 359.091 61.5273C357.065 58.597 354.914 55.6979 352.638 52.9235C352.509 52.7676 352.384 52.5806 352.264 52.4247C351.137 51.0887 350.037 49.775 348.893 48.4657C347.677 47.0629 346.43 45.7224 345.152 44.3775C343.998 43.1618 342.845 41.9772 341.629 40.8149C341.373 40.5209 341.091 40.2497 340.788 40.0044C339.728 38.9445 338.637 37.9469 337.546 36.9494C336.455 35.9519 335.27 34.892 334.081 33.9256C333.333 33.271 332.585 32.6163 331.805 32.024C330.839 31.2135 329.841 30.4342 328.844 29.686C327.628 28.6885 326.381 27.7845 325.103 26.876C324.293 26.2525 323.451 25.6914 322.609 25.1303C321.767 24.5692 320.895 23.9145 319.991 23.3489C318.588 22.4137 317.185 21.5409 315.778 20.677C314.37 19.813 313.003 19.0248 311.601 18.2454C309.543 17.092 307.454 15.9698 305.335 14.9099C302.342 13.3824 299.251 12.0108 296.134 10.7327C292.361 9.14433 288.501 7.72966 284.556 6.48866H284.524C282.685 5.92755 280.815 5.36643 278.909 4.86765C278.878 4.89883 278.878 4.89883 278.878 4.86765C276.882 4.36888 274.919 3.87011 272.892 3.40251C271.895 3.1843 270.866 2.99726 269.837 2.77905C266.586 2.12589 263.306 1.59595 259.995 1.18921L256.629 0.81513C255.413 0.72161 254.228 0.596917 253.044 0.503397C250.862 0.347531 248.68 0.222838 246.497 0.160491C245.531 0.129318 244.565 0.0981445 243.585 0.0981445H240.966C239.969 0.0981445 239.002 0.129318 238.036 0.160491C235.809 0.222838 233.672 0.316357 231.49 0.503397C230.305 0.596917 229.121 0.72161 227.905 0.81513C225.531 1.06452 223.162 1.37625 220.824 1.70579C219.764 1.86166 218.704 2.0487 217.644 2.23574C214.496 2.79686 211.347 3.4515 208.261 4.19966C208.23 4.16848 208.23 4.19966 208.199 4.19966C206.262 4.64499 204.36 5.1972 202.459 5.75832H202.427C200.524 6.31944 198.654 6.91321 196.816 7.53965C195.07 8.13194 193.325 8.75986 191.61 9.4145H191.579C189.927 10.038 188.27 10.7238 186.649 11.4096H186.582C183.34 12.8124 180.13 14.3087 177.012 15.9609C175.454 16.7714 173.895 17.6131 172.367 18.4859C170.84 19.3588 169.339 20.2672 167.843 21.1579C166.347 22.0486 164.85 23.0595 163.416 24.0259C161.982 24.9922 160.517 26.0209 159.083 27.0541C157.649 28.0873 156.278 29.1115 154.906 30.2026C153.623 31.2002 152.376 32.1977 151.161 33.2264C150.715 33.6317 150.226 34.0058 149.758 34.4422C148.867 35.1592 148.043 35.9073 147.202 36.6688C146.836 36.9657 146.492 37.2886 146.173 37.6352C145.282 38.4457 144.365 39.2874 143.501 40.1602C142.41 41.189 141.319 42.28 140.259 43.4023C139.511 44.1816 138.763 44.9654 138.032 45.7447C137.097 46.7423 136.193 47.7398 135.316 48.7685C134.349 49.8908 133.383 50.9952 132.448 52.1664C132.417 52.1664 132.417 52.1664 132.417 52.1976C131.575 53.2263 130.733 54.255 129.923 55.3149C129.299 56.1254 128.676 56.9671 128.052 57.8088L127.024 59.2116C126.431 60.0221 125.87 60.8326 125.309 61.6743C124.748 62.5159 124.187 63.2997 123.657 64.1414C123.314 64.609 123.034 65.0766 122.766 65.5442C122.174 66.4349 121.644 67.2899 121.114 68.1627C120.584 69.0356 120.054 69.9084 119.555 70.8347C119.244 71.2801 118.994 71.7699 118.745 72.2375C118.215 73.1282 117.712 74.0189 117.244 74.9496C116.839 75.6354 116.465 76.3524 116.122 77.0694C115.623 78.0046 115.124 78.971 114.688 79.9373C114.407 80.4673 114.127 81.0284 113.877 81.594C113.432 82.5292 112.987 83.4644 112.568 84.4307C112.288 85.0854 111.976 85.7667 111.727 86.4258C111.281 87.361 110.885 88.3274 110.511 89.2938C110.23 89.9796 109.95 90.6966 109.7 91.3824C109.326 92.3176 108.983 93.2839 108.64 94.2503C108.422 94.8738 108.195 95.4661 107.986 96.0895C107.643 97.0871 107.3 98.0846 106.988 99.0822C106.676 100.08 106.427 100.926 106.178 101.861C105.71 103.357 105.287 104.885 104.9 106.412C104.619 107.472 104.338 108.501 104.12 109.561C103.751 111.071 103.439 112.598 103.127 114.125C102.753 115.907 102.441 117.715 102.161 119.523C101.88 121.113 101.662 122.703 101.475 124.292C100.753 130.072 100.378 135.889 100.353 141.714L100.188 183.816L100.313 221.949L178.762 177.893C180.425 176.766 181.833 175.302 182.892 173.596C183.952 171.889 184.64 169.979 184.912 167.988V167.926C184.974 167.325 185.005 166.722 185.006 166.118L185.037 165.9L185.099 141.954C185.147 127.802 190.429 114.168 199.928 103.676C209.426 93.1852 222.471 86.579 236.549 85.1299C237.39 85.0364 238.201 84.974 239.043 84.9429C239.697 84.8805 240.379 84.8805 241.069 84.8805C241.365 84.8539 241.662 84.8435 241.96 84.8493C242.458 84.8493 242.957 84.8493 243.456 84.8805C244.146 84.8805 244.832 84.9117 245.487 84.9429L247.98 85.1299C262.053 86.5839 275.09 93.1902 284.585 103.678C294.079 114.166 299.36 127.794 299.412 141.941L299.474 165.886L299.505 166.105C299.505 166.615 299.537 167.125 299.599 167.632C299.807 169.682 300.462 171.662 301.517 173.431C302.573 175.201 304.004 176.718 305.709 177.875L384.159 221.932L384.408 222.105Z" fill="white"/>
<path d="M283.024 305.793L382.778 361.825C383.241 357.11 383.455 352.374 383.419 347.637L383.17 264.85L310.964 224.284C292.514 213.898 271.97 207.782 250.844 206.386C250.501 206.355 250.158 206.324 249.784 206.324L246.106 206.137C243.113 206.044 240.089 206.044 237.065 206.137L233.382 206.324C233.028 206.299 232.672 206.32 232.323 206.386C211.203 207.82 190.667 213.933 172.203 224.284L100.023 264.85L99.7427 347.637C99.7427 352.375 99.9609 357.118 100.428 361.825L200.183 305.793L207.415 301.705L211.811 299.033C219.706 294.272 228.641 291.501 237.845 290.959C239.029 290.866 240.245 290.835 241.43 290.835H241.773C242.957 290.835 244.142 290.897 245.335 290.959C246.529 291.022 247.611 291.115 248.733 291.271C249.947 291.426 251.163 291.613 252.38 291.832C253.32 291.988 254.224 292.206 255.159 292.425C255.371 292.458 255.58 292.51 255.783 292.58C256.562 292.768 257.372 292.986 258.152 293.235C258.557 293.329 258.962 293.453 259.336 293.578C260.116 293.827 260.926 294.108 261.706 294.42C262.984 294.865 264.231 295.386 265.478 295.947C266.319 296.321 267.13 296.727 267.94 297.132C268.065 297.194 268.221 297.288 268.345 297.35C269.374 297.88 270.403 298.472 271.4 299.065L275.8 301.737L283.024 305.793Z" fill="white"/>
<path d="M250.842 206.387C262.535 207.167 274.087 209.388 285.235 213L250.842 206.387Z" fill="white"/>
<path d="M207.411 301.704L213.739 298.142C222.2 293.395 231.728 290.874 241.43 290.816C230.99 290.804 220.745 293.65 211.807 299.046L207.411 301.704Z" fill="white"/>
</mask>
<g mask="url(#mask0_811_305)">
<circle cx="257.531" cy="215.261" r="218.352" transform="rotate(-47.3464 257.531 215.261)" fill="url(#paint0_linear_811_305)"/>
<circle cx="248.121" cy="274.92" r="218.352" transform="rotate(162.129 248.121 274.92)" fill="url(#paint1_linear_811_305)" fill-opacity="0.6"/>
</g>
<mask id="mask1_811_305" style="mask-type:alpha" maskUnits="userSpaceOnUse" x="0" y="463" width="45" height="57">
<path d="M43.1542 479.423C43.0065 478.918 42.8351 478.418 42.6445 477.926C42.8303 478.418 43.0018 478.918 43.1542 479.423Z" fill="white"/>
<path d="M17.1973 464.625C17.6688 464.51 18.1499 464.41 18.631 464.325C18.1452 464.404 17.6688 464.506 17.1973 464.625Z" fill="white"/>
<path d="M4.27539 473.788C4.35637 473.659 4.43735 473.534 4.52785 473.411L4.27539 473.788Z" fill="white"/>
<path d="M7.71591 469.738C7.57981 469.857 7.43963 469.99 7.30762 470.124L7.71591 469.738Z" fill="white"/>
<path d="M8.47754 469.061C8.66331 468.904 8.85453 468.747 9.04983 468.599C9.25942 468.432 9.47377 468.27 9.68812 468.118C9.90248 467.965 10.1264 467.803 10.3502 467.655C10.5741 467.507 10.798 467.36 11.0266 467.217C11.2553 467.074 11.4839 466.941 11.718 466.809" fill="white"/>
<path d="M44.1165 497.919L44.0974 491.711L44.0784 485.635C44.0784 485.392 44.0736 485.149 44.0641 484.911C44.0593 484.787 44.0545 484.667 44.045 484.548C44.0355 484.31 44.0212 484.072 43.9974 483.834C43.9982 483.815 43.9966 483.795 43.9926 483.777C43.9736 483.553 43.9509 483.329 43.9246 483.105C43.9198 483.024 43.9102 482.942 43.896 482.862C43.8912 482.81 43.8865 482.762 43.8769 482.71C43.8484 482.519 43.8198 482.329 43.7912 482.143C43.7864 482.114 43.7817 482.081 43.7769 482.052C43.7293 481.771 43.6769 481.49 43.615 481.213C43.553 480.937 43.5006 480.68 43.4339 480.418C43.3768 480.189 43.3149 479.96 43.2482 479.737C43.2244 479.632 43.191 479.528 43.1577 479.428C43.0052 478.922 42.8338 478.422 42.648 477.931C42.6385 477.907 42.6289 477.878 42.6194 477.854C42.5194 477.597 42.4153 477.349 42.3098 477.097C42.2043 476.845 42.0764 476.578 41.9525 476.32C41.8287 476.062 41.7041 475.81 41.5708 475.558L41.1958 474.883C41.0339 474.602 40.8624 474.321 40.6909 474.05C40.548 473.831 40.4051 473.616 40.2622 473.401C40.2564 473.396 40.2515 473.389 40.2479 473.382C39.9383 472.934 39.6096 472.491 39.2619 472.068C39.2422 472.044 39.2231 472.015 39.2047 471.991C39.0326 471.787 38.8645 471.586 38.6896 471.386C38.5038 471.172 38.3133 470.967 38.118 470.762C37.9417 470.576 37.7655 470.395 37.5797 470.217C37.5405 470.172 37.4975 470.131 37.4511 470.093C37.2892 469.931 37.1224 469.779 36.9557 469.627C36.789 469.474 36.608 469.312 36.4263 469.165C36.312 469.065 36.1977 468.965 36.0786 468.874C35.9309 468.75 35.7785 468.631 35.6261 468.517C35.4403 468.364 35.2497 468.226 35.0544 468.087C34.9306 467.992 34.802 467.906 34.6734 467.821C34.5448 467.735 34.4114 467.635 34.2732 467.548C34.0589 467.406 33.8445 467.272 33.6295 467.14C33.4145 467.008 33.2056 466.888 32.9912 466.769C32.6768 466.592 32.3577 466.421 32.0338 466.259C31.5765 466.025 31.1042 465.816 30.6279 465.621C30.0513 465.378 29.4615 465.162 28.8586 464.972H28.8539C28.5728 464.886 28.287 464.801 27.9958 464.724C27.991 464.729 27.991 464.729 27.991 464.724C27.6861 464.648 27.3861 464.572 27.0764 464.501C26.924 464.467 26.7668 464.439 26.6096 464.405C26.1129 464.305 25.6116 464.224 25.1057 464.162L24.5913 464.105C24.4055 464.091 24.2245 464.072 24.0435 464.058C23.7101 464.034 23.3766 464.015 23.0432 464.005C22.8955 464 22.7479 463.996 22.5982 463.996H22.198C22.0456 463.996 21.8979 464 21.7503 464.005C21.41 464.015 21.0834 464.029 20.75 464.058C20.5689 464.072 20.3879 464.091 20.2022 464.105C19.8395 464.143 19.4775 464.191 19.1202 464.241C18.9582 464.265 18.7963 464.294 18.6343 464.322C18.1532 464.408 17.6721 464.508 17.2005 464.622C17.1958 464.618 17.1958 464.622 17.191 464.622C16.895 464.69 16.6044 464.775 16.3139 464.861H16.3091C16.0183 464.946 15.7325 465.037 15.4517 465.133C15.1849 465.223 14.9182 465.319 14.6562 465.419H14.6514C14.399 465.514 14.1458 465.619 13.8981 465.724H13.8879C13.3925 465.938 12.9019 466.167 12.4256 466.419C12.1874 466.543 11.9492 466.672 11.7158 466.805C11.4824 466.939 11.2531 467.078 11.0245 467.214C10.7958 467.35 10.5672 467.504 10.3481 467.652C10.1289 467.8 9.90506 467.957 9.68594 468.115C9.46683 468.272 9.25724 468.429 9.04765 468.596C8.85167 468.748 8.66113 468.901 8.47536 469.058C8.40731 469.12 8.33246 469.177 8.26101 469.244C8.12491 469.353 7.99902 469.467 7.87041 469.584C7.81451 469.629 7.76198 469.678 7.71322 469.731C7.57712 469.855 7.43694 469.984 7.30493 470.117C7.13821 470.274 6.97149 470.441 6.80953 470.613C6.69521 470.732 6.58089 470.852 6.46929 470.971C6.32639 471.123 6.18825 471.275 6.05419 471.433C5.90653 471.604 5.75886 471.773 5.61596 471.952C5.6112 471.952 5.6112 471.952 5.6112 471.957C5.48259 472.114 5.35397 472.271 5.23012 472.433C5.13486 472.557 5.03959 472.685 4.94432 472.814L4.78713 473.028C4.69662 473.152 4.61088 473.276 4.52514 473.405C4.4394 473.533 4.35366 473.653 4.27268 473.782C4.22028 473.853 4.17741 473.925 4.13658 473.996C4.04608 474.132 3.9651 474.263 3.88412 474.396C3.80315 474.53 3.72217 474.663 3.64596 474.804C3.59832 474.872 3.56021 474.947 3.52211 475.019C3.44113 475.155 3.36423 475.291 3.29278 475.433C3.23086 475.538 3.1737 475.648 3.1213 475.757C3.04509 475.9 2.96887 476.048 2.90218 476.195C2.85931 476.276 2.81644 476.362 2.77834 476.448C2.71029 476.591 2.64224 476.734 2.57827 476.882C2.5354 476.982 2.48777 477.086 2.44966 477.187C2.38161 477.33 2.32105 477.477 2.26389 477.625C2.22102 477.73 2.17815 477.839 2.14004 477.944C2.08288 478.087 2.03048 478.235 1.97808 478.382C1.94474 478.478 1.91004 478.568 1.87805 478.663C1.82566 478.816 1.77326 478.968 1.72562 479.121C1.67799 479.273 1.63988 479.402 1.60178 479.545C1.53033 479.774 1.46568 480.007 1.40648 480.241C1.36361 480.403 1.32074 480.56 1.28739 480.722C1.23091 480.953 1.18328 481.186 1.13564 481.419C1.07848 481.692 1.03085 481.968 0.987979 482.244C0.945108 482.487 0.911764 482.73 0.883184 482.973C0.772838 483.856 0.715575 484.745 0.711701 485.635L0.686523 492.068L0.705577 497.895L12.693 491.163C12.9471 490.991 13.1621 490.767 13.3241 490.507C13.486 490.246 13.5912 489.954 13.6328 489.65V489.64C13.6421 489.549 13.6469 489.456 13.6471 489.364L13.6518 489.331L13.6613 485.672C13.6686 483.509 14.4757 481.426 15.9271 479.823C17.3786 478.22 19.3718 477.21 21.523 476.989C21.6516 476.975 21.7754 476.965 21.9041 476.96C22.0041 476.951 22.1082 476.951 22.2137 476.951C22.2589 476.947 22.3044 476.945 22.3498 476.946C22.426 476.946 22.5022 476.946 22.5784 476.951C22.6839 476.951 22.7887 476.955 22.8887 476.96L23.2698 476.989C25.4201 477.211 27.4123 478.22 28.8631 479.823C30.3139 481.426 31.1209 483.508 31.1287 485.67L31.1383 489.329L31.143 489.362C31.143 489.44 31.1478 489.518 31.1573 489.595C31.1891 489.909 31.2892 490.211 31.4505 490.482C31.6118 490.752 31.8304 490.984 32.0909 491.161L44.0784 497.893L44.1165 497.919Z" fill="white"/>
<path d="M28.6247 510.707L43.8676 519.269C43.9384 518.548 43.9711 517.825 43.9656 517.101L43.9275 504.451L32.8941 498.252C30.0749 496.665 26.9357 495.73 23.7075 495.517C23.6551 495.512 23.6027 495.508 23.5456 495.508L22.9835 495.479C22.5262 495.465 22.0642 495.465 21.6021 495.479L21.0393 495.508C20.9852 495.504 20.9307 495.507 20.8774 495.517C17.6503 495.736 14.5123 496.67 11.6908 498.252L0.661523 504.451L0.618652 517.101C0.618652 517.825 0.651996 518.549 0.723447 519.269L15.9663 510.707L17.0714 510.082L17.7431 509.674C18.9495 508.946 20.3148 508.523 21.7212 508.44C21.9022 508.426 22.088 508.421 22.269 508.421H22.3214C22.5024 508.421 22.6834 508.431 22.8658 508.44C23.0481 508.45 23.2135 508.464 23.385 508.488C23.5705 508.511 23.7563 508.54 23.9423 508.574C24.0859 508.597 24.224 508.631 24.3669 508.664C24.3993 508.669 24.4312 508.677 24.4622 508.688C24.5813 508.716 24.7051 508.75 24.8242 508.788C24.8861 508.802 24.9481 508.821 25.0052 508.84C25.1243 508.878 25.2481 508.921 25.3672 508.969C25.5625 509.037 25.7531 509.117 25.9436 509.202C26.0722 509.259 26.1961 509.321 26.3199 509.383C26.339 509.393 26.3628 509.407 26.3818 509.417C26.539 509.498 26.6962 509.588 26.8487 509.679L27.521 510.087L28.6247 510.707Z" fill="white"/>
<path d="M23.7075 495.518C25.4943 495.637 27.2594 495.976 28.9629 496.528L23.7075 495.518Z" fill="white"/>
<path d="M17.0713 510.082L18.0383 509.538C19.3311 508.812 20.7871 508.427 22.2695 508.418C20.6742 508.417 19.1087 508.852 17.7429 509.676L17.0713 510.082Z" fill="white"/>
</mask>
<g mask="url(#mask1_811_305)">
<circle cx="24.7297" cy="496.873" r="33.365" transform="rotate(-47.3464 24.7297 496.873)" fill="url(#paint2_linear_811_305)"/>
<circle cx="23.2921" cy="505.99" r="33.365" transform="rotate(162.129 23.2921 505.99)" fill="url(#paint3_linear_811_305)" fill-opacity="0.6"/>
</g>
<path d="M62.1063 469.462H75.8797C90.6185 469.462 100.53 478.665 100.53 492.439C100.53 506.083 90.6829 515.352 75.8154 515.352H62.1063V469.462ZM76.1372 506.663C85.4696 506.663 91.4552 501.063 91.4552 492.503C91.4552 483.621 85.6627 478.215 76.1372 478.215H71.2457V506.663H76.1372ZM105.187 499.519C105.187 489.671 111.688 482.591 120.763 482.591C129.967 482.591 136.274 489.8 136.274 500.291V502.93H113.683C114.455 506.277 117.223 508.207 121.213 508.207C123.788 508.207 125.204 507.757 127.006 506.019L133.957 510.396C130.61 514.45 126.491 516.253 121.085 516.253C111.817 516.253 105.187 509.302 105.187 499.519ZM113.941 495.85H127.714C126.942 492.503 124.753 490.444 120.956 490.444C117.223 490.444 114.713 492.632 113.941 495.85ZM152.693 516.446C147.48 516.446 142.202 514.129 138.984 510.589L144.262 504.989C147.416 507.757 149.54 508.658 153.916 508.658C155.911 508.658 158.743 507.564 158.743 505.633C158.743 503.058 155.397 503.445 149.861 502.029C143.683 500.484 140.722 497.073 140.722 492.825C140.722 486.775 145.807 482.591 153.916 482.591C158.1 482.591 162.412 484.007 165.566 486.389L162.154 492.954C158.743 490.959 156.362 490.379 153.723 490.379C150.505 490.379 148.767 491.28 148.767 492.568C148.767 493.855 150.054 494.498 155.59 495.399C163.635 497.008 166.724 500.227 166.724 505.633C166.724 512.133 161.575 516.446 152.693 516.446ZM176.605 478.472C173.515 478.472 170.941 476.091 170.941 473.066C170.941 470.041 173.451 467.531 176.412 467.531C179.565 467.531 182.075 469.977 182.075 473.066C182.075 476.027 179.501 478.472 176.605 478.472ZM172.421 483.299H180.917V515.352H172.421V483.299ZM217.979 483.299V489.156H214.632C215.79 491.152 216.498 493.533 216.498 496.172C216.498 504.281 210.191 510.267 201.953 510.267H201.566C197.383 510.203 196.417 510.718 196.417 511.812C196.417 513.163 198.735 513.614 204.785 513.035C212.701 512.327 216.949 515.48 216.949 521.208C216.949 527.838 210.834 531.699 201.695 531.699C195.581 531.699 190.239 529.962 187.407 526.744L192.363 521.08C194.422 523.332 198.091 524.233 201.631 524.105C205.814 523.976 209.032 522.946 209.032 520.951C209.032 519.342 206.973 519.149 203.047 519.406L200.537 519.535C192.878 519.921 188.823 516.768 188.823 512.198C188.823 509.688 190.046 507.886 192.105 506.663C189.209 504.088 187.471 500.355 187.471 496.107C187.471 488.384 193.779 482.527 201.953 482.527C204.913 482.527 207.552 483.235 209.805 484.522C211.736 483.621 214.503 483.299 217.979 483.299ZM201.953 502.479C205.557 502.479 208.003 500.227 208.003 496.236C208.003 492.181 205.621 489.993 202.017 489.993C198.477 489.993 195.903 492.181 195.903 496.107C195.903 500.227 198.477 502.479 201.953 502.479ZM223.378 483.299H231.81V485.552C233.934 483.557 237.409 482.527 239.919 482.527C246.935 482.527 251.376 487.097 251.376 495.85V515.352H243.009V496.751C243.009 491.538 240.563 490.572 238.761 490.572C234.964 490.572 231.81 492.632 231.81 499.969V515.352H223.378V483.299Z" fill="white"/>
<path d="M303.877 517.352H296.604L279.806 494.117L273.241 500.811V517.352H267.32V471.462H273.241V492.765L294.352 471.462H302.204L284.182 489.676L303.877 517.352ZM324.579 490.835C322.262 489.869 321.747 489.805 320.589 489.805C315.44 489.805 313.573 494.696 313.573 499.202V517.352H308.102V485.299H313.573V489.161C315.311 486.394 318.465 484.527 322.004 484.527C323.807 484.527 325.544 485.042 327.346 486.136L324.579 490.835ZM328.88 501.454C328.88 491.478 335.187 484.527 344.391 484.527C353.594 484.527 359.709 491.478 359.709 501.905V502.806H334.415C334.737 509.178 338.469 513.168 344.713 513.168C348.446 513.168 351.406 511.302 353.723 507.762L357.971 510.787C354.689 515.807 350.248 518.188 344.455 518.188C335.187 518.188 328.88 511.302 328.88 501.454ZM334.801 498.172H353.916C353.466 492.959 349.475 489.483 344.455 489.483C339.177 489.483 335.38 493.152 334.801 498.172ZM363.197 508.534C363.197 501.647 367.767 498.558 375.426 498.043L385.66 497.206V495.211C385.66 491.349 381.991 489.612 378.129 489.612C375.04 489.612 371.178 489.805 367.381 492.765L365.193 488.646C367.703 486.909 370.599 484.591 378.129 484.591C385.917 484.591 391.002 488.453 391.002 495.855V517.352H385.531L385.595 512.782C385.145 514.648 380.897 518.253 374.461 518.253C368.604 518.253 363.197 514.52 363.197 508.534ZM375.297 513.168C380.833 513.168 385.531 509.564 385.531 506.474V502.227L375.169 503.063C369.891 503.514 368.604 506.088 368.604 508.083C368.604 511.302 371.758 513.168 375.297 513.168ZM400.557 485.299V473.779L406.028 471.462V485.299H414.201V490.32H406.028V505.316C406.028 513.232 408.731 513.876 413.88 512.267L415.489 517.03C413.88 517.802 411.82 518.253 410.211 518.253C403.003 518.253 400.557 513.94 400.557 507.054V490.32H396.824V485.299H400.557ZM424.015 479.249C421.762 479.249 420.089 477.512 420.089 475.323C420.089 473.264 421.891 471.462 423.95 471.462C426.203 471.462 427.876 473.199 427.876 475.323C427.876 477.512 426.139 479.249 424.015 479.249ZM421.311 485.299H426.718V517.352H421.311V485.299ZM430.971 485.299H437.021L446.804 507.569L456.394 485.299H462.379L447.705 517.352H445.71L430.971 485.299Z" fill="white"/>
<path d="M465.751 513.163C465.751 511.767 466.257 510.564 467.268 509.553C468.327 508.494 469.554 507.964 470.95 507.964C472.443 507.964 473.694 508.47 474.705 509.481C475.716 510.492 476.222 511.719 476.222 513.163C476.222 514.656 475.716 515.931 474.705 516.991C473.694 518.001 472.467 518.507 471.022 518.507C469.578 518.507 468.327 517.977 467.268 516.918C466.257 515.859 465.751 514.608 465.751 513.163Z" fill="#613ECE"/>
<g opacity="0.7">
<g clip-path="url(#clip0_811_305)">
<path d="M137.45 573.878C133.329 575.115 133.329 571.817 131.68 571.405M143.22 576.351V573.161C143.251 572.768 143.198 572.373 143.065 572.002C142.931 571.631 142.72 571.293 142.446 571.01C145.034 570.721 147.754 569.74 147.754 565.239C147.754 564.089 147.311 562.982 146.518 562.148C146.894 561.141 146.867 560.028 146.444 559.041C146.444 559.041 145.471 558.752 143.22 560.261C141.331 559.749 139.34 559.749 137.45 560.261C135.2 558.752 134.227 559.041 134.227 559.041C133.804 560.028 133.777 561.141 134.153 562.148C133.354 562.988 132.91 564.105 132.917 565.264C132.917 569.732 135.637 570.713 138.225 571.034C137.954 571.315 137.745 571.649 137.611 572.015C137.478 572.382 137.423 572.772 137.45 573.161V576.351" stroke="white" stroke-width="2.08741" stroke-linecap="round" stroke-linejoin="round"/>
</g>
<path d="M169.401 576.9L173.798 567.008M172.369 570.305C172.849 571.694 173.941 572.504 175.172 572.504C177.448 572.504 179.294 570.796 179.294 568.107C179.295 567.304 179.12 566.511 178.781 565.783C178.443 565.056 177.949 564.411 177.335 563.894C176.721 563.378 176.001 563.002 175.226 562.793C174.451 562.585 173.64 562.548 172.849 562.687C172.058 562.826 171.308 563.136 170.65 563.595C169.992 564.055 169.443 564.653 169.041 565.348C168.639 566.043 168.394 566.817 168.323 567.616C168.252 568.416 168.358 569.221 168.632 569.976" stroke="white" stroke-width="1.72733" stroke-linecap="round" stroke-linejoin="round"/>
<path d="M163.905 568.107C163.905 569.406 164.161 570.693 164.658 571.893C165.155 573.093 165.884 574.184 166.803 575.102C167.721 576.021 168.812 576.75 170.012 577.247C171.212 577.744 172.499 578 173.798 578C175.097 578 176.384 577.744 177.584 577.247C178.784 576.75 179.875 576.021 180.793 575.102C181.712 574.184 182.441 573.093 182.938 571.893C183.435 570.693 183.691 569.406 183.691 568.107C183.691 566.808 183.435 565.522 182.938 564.321C182.441 563.121 181.712 562.03 180.793 561.112C179.875 560.193 178.784 559.465 177.584 558.967C176.384 558.47 175.097 558.214 173.798 558.214C172.499 558.214 171.212 558.47 170.012 558.967C168.812 559.465 167.721 560.193 166.803 561.112C165.884 562.03 165.155 563.121 164.658 564.321C164.161 565.522 163.905 566.808 163.905 568.107Z" stroke="white" stroke-width="1.72733" stroke-linecap="round" stroke-linejoin="round"/>
<path d="M203.519 558.214H211.828C214.994 558.214 217.566 560.786 217.566 563.952V572.262C217.566 573.784 216.962 575.243 215.886 576.319C214.81 577.395 213.35 578 211.828 578H203.519C200.353 578 197.781 575.428 197.781 572.262V563.952C197.781 562.43 198.385 560.971 199.461 559.895C200.537 558.819 201.997 558.214 203.519 558.214ZM203.321 560.193C202.376 560.193 201.47 560.568 200.802 561.236C200.135 561.904 199.759 562.81 199.759 563.754V572.46C199.759 574.429 201.352 576.021 203.321 576.021H212.026C212.971 576.021 213.877 575.646 214.545 574.978C215.212 574.31 215.588 573.404 215.588 572.46V563.754C215.588 561.786 213.995 560.193 212.026 560.193H203.321ZM212.867 561.677C213.195 561.677 213.51 561.807 213.742 562.039C213.973 562.271 214.104 562.585 214.104 562.913C214.104 563.241 213.973 563.556 213.742 563.788C213.51 564.02 213.195 564.15 212.867 564.15C212.539 564.15 212.225 564.02 211.993 563.788C211.761 563.556 211.631 563.241 211.631 562.913C211.631 562.585 211.761 562.271 211.993 562.039C212.225 561.807 212.539 561.677 212.867 561.677ZM207.673 563.161C208.985 563.161 210.243 563.682 211.171 564.609C212.099 565.537 212.62 566.795 212.62 568.107C212.62 569.419 212.099 570.677 211.171 571.605C210.243 572.532 208.985 573.053 207.673 573.053C206.362 573.053 205.104 572.532 204.176 571.605C203.248 570.677 202.727 569.419 202.727 568.107C202.727 566.795 203.248 565.537 204.176 564.609C205.104 563.682 206.362 563.161 207.673 563.161ZM207.673 565.139C206.886 565.139 206.131 565.452 205.575 566.009C205.018 566.565 204.706 567.32 204.706 568.107C204.706 568.894 205.018 569.649 205.575 570.206C206.131 570.762 206.886 571.075 207.673 571.075C208.461 571.075 209.215 570.762 209.772 570.206C210.329 569.649 210.641 568.894 210.641 568.107C210.641 567.32 210.329 566.565 209.772 566.009C209.215 565.452 208.461 565.139 207.673 565.139Z" fill="white"/>
<path d="M251.442 568.165V568.11C251.441 566.643 251.114 565.194 250.485 563.868C249.857 562.542 248.941 561.373 247.805 560.444L247.75 560.398L247.668 560.343C246.216 559.197 244.473 558.482 242.635 558.278C240.797 558.074 238.939 558.389 237.271 559.189L237.134 559.262C235.786 559.936 234.61 560.908 233.694 562.105C232.778 563.302 232.147 564.692 231.849 566.169C231.718 566.808 231.654 567.458 231.656 568.11C231.658 569.644 232.016 571.156 232.701 572.527C233.386 573.899 234.38 575.093 235.604 576.015C235.652 576.057 235.705 576.094 235.76 576.125H235.769C237.059 577.057 238.553 577.663 240.127 577.895C241.701 578.126 243.307 577.975 244.81 577.454L244.929 577.408C246.823 576.717 248.461 575.464 249.625 573.818C250.788 572.171 251.422 570.209 251.442 568.193V568.165ZM249.17 567.011H248.877C247.601 567.01 246.331 567.167 245.094 567.478C244.824 566.731 244.496 566.005 244.114 565.307C245.219 564.606 246.231 563.769 247.127 562.816C248.223 563.972 248.936 565.436 249.17 567.011ZM245.396 561.451C244.654 562.212 243.827 562.885 242.932 563.457C242.125 562.374 241.183 561.398 240.129 560.554C240.597 560.461 241.072 560.415 241.549 560.416C242.901 560.413 244.229 560.77 245.396 561.451ZM237.665 561.479C238.918 562.294 240.029 563.309 240.954 564.483C239.287 565.187 237.496 565.548 235.687 565.546C235.238 565.546 234.78 565.518 234.322 565.472C234.939 563.794 236.121 562.382 237.665 561.479ZM233.855 568.11C233.855 567.955 233.864 567.799 233.873 567.643C234.475 567.709 235.081 567.742 235.687 567.744C237.926 567.746 240.14 567.271 242.181 566.352C242.494 566.931 242.766 567.531 242.996 568.147C242.318 568.421 241.66 568.743 241.027 569.109C239.093 570.223 237.417 571.734 236.108 573.542C235.393 572.83 234.827 571.983 234.44 571.051C234.053 570.119 233.854 569.12 233.855 568.11ZM237.867 574.861C238.997 573.29 240.449 571.979 242.126 571.014C242.598 570.737 243.087 570.492 243.592 570.281C243.752 571.127 243.835 571.985 243.839 572.846C243.839 573.751 243.747 574.653 243.564 575.539C242.907 575.716 242.23 575.806 241.549 575.805C240.262 575.807 238.995 575.482 237.867 574.861ZM245.955 574.412C246.01 573.892 246.037 573.369 246.037 572.846C246.036 571.75 245.92 570.657 245.689 569.585C246.734 569.337 247.803 569.211 248.877 569.21H249.17C249.018 570.251 248.655 571.249 248.102 572.144C247.549 573.039 246.818 573.811 245.955 574.412Z" fill="white"/>
<path d="M284.556 563.16C283.345 563.16 282.184 562.679 281.328 561.823C280.471 560.966 279.99 559.805 279.99 558.594C279.99 558.392 279.91 558.199 279.767 558.056C279.625 557.913 279.431 557.833 279.229 557.833H275.424C275.223 557.833 275.029 557.913 274.886 558.056C274.744 558.199 274.663 558.392 274.663 558.594V570.77C274.663 571.11 274.571 571.444 274.397 571.736C274.224 572.029 273.975 572.269 273.677 572.433C273.379 572.597 273.042 572.678 272.702 572.667C272.362 572.656 272.031 572.555 271.744 572.373C271.456 572.191 271.223 571.936 271.068 571.633C270.913 571.33 270.842 570.991 270.862 570.652C270.882 570.312 270.993 569.984 271.183 569.702C271.374 569.42 271.636 569.194 271.943 569.048C272.074 568.988 272.185 568.891 272.262 568.77C272.34 568.648 272.381 568.507 272.381 568.363V564.406C272.382 564.293 272.359 564.181 272.311 564.079C272.263 563.977 272.192 563.887 272.105 563.816C272.02 563.746 271.92 563.695 271.813 563.667C271.707 563.639 271.595 563.635 271.486 563.654C270.133 563.897 268.876 564.521 267.864 565.452C266.853 566.384 266.127 567.585 265.774 568.914C265.421 570.243 265.454 571.645 265.87 572.956C266.286 574.267 267.067 575.433 268.122 576.315C269.177 577.198 270.461 577.761 271.825 577.939C273.189 578.117 274.575 577.902 275.821 577.32C277.067 576.738 278.121 575.812 278.86 574.652C279.598 573.492 279.991 572.145 279.99 570.77V567.374C281.4 568.109 282.967 568.491 284.556 568.487C284.758 568.487 284.952 568.407 285.094 568.264C285.237 568.121 285.317 567.928 285.317 567.726V563.921C285.317 563.719 285.237 563.525 285.094 563.383C284.952 563.24 284.758 563.16 284.556 563.16ZM283.795 566.927C282.31 566.795 280.887 566.266 279.676 565.395C279.562 565.316 279.428 565.27 279.289 565.26C279.15 565.251 279.012 565.28 278.888 565.343C278.764 565.407 278.659 565.503 278.586 565.621C278.512 565.739 278.471 565.874 278.468 566.014V570.77C278.468 571.816 278.18 572.842 277.636 573.735C277.091 574.629 276.312 575.356 275.383 575.836C274.453 576.317 273.41 576.533 272.366 576.46C271.322 576.388 270.319 576.03 269.465 575.426C268.611 574.822 267.939 573.994 267.523 573.034C267.108 572.074 266.964 571.018 267.108 569.982C267.252 568.946 267.678 567.969 268.339 567.158C269.001 566.348 269.872 565.734 270.859 565.386V567.925C270.367 568.254 269.968 568.705 269.702 569.233C269.436 569.762 269.312 570.351 269.341 570.942C269.37 571.533 269.552 572.106 269.869 572.606C270.185 573.106 270.626 573.515 271.148 573.794C271.67 574.072 272.255 574.211 272.847 574.196C273.439 574.181 274.016 574.013 274.524 573.709C275.031 573.404 275.451 572.973 275.742 572.458C276.033 571.943 276.186 571.361 276.185 570.77V559.355H278.516C278.686 560.696 279.297 561.942 280.253 562.897C281.209 563.853 282.455 564.464 283.795 564.634V566.927Z" fill="white"/>
<path fill-rule="evenodd" clip-rule="evenodd" d="M301.386 568.107C301.386 566.584 301.826 565.093 302.652 563.814C303.478 562.535 304.656 561.521 306.044 560.894C307.432 560.268 308.972 560.055 310.478 560.282C311.984 560.509 313.393 561.165 314.535 562.172C315.677 563.18 316.504 564.496 316.918 565.961C317.331 567.427 317.312 568.981 316.864 570.437C316.415 571.893 315.557 573.188 314.391 574.168C313.224 575.147 311.8 575.77 310.289 575.96V570.086H312.268C312.53 570.086 312.782 569.981 312.967 569.796C313.153 569.61 313.257 569.359 313.257 569.096C313.257 568.834 313.153 568.582 312.967 568.397C312.782 568.211 312.53 568.107 312.268 568.107H310.289V566.129C310.289 565.866 310.393 565.615 310.579 565.429C310.764 565.243 311.016 565.139 311.278 565.139H311.773C312.036 565.139 312.287 565.035 312.473 564.85C312.658 564.664 312.762 564.412 312.762 564.15C312.762 563.888 312.658 563.636 312.473 563.45C312.287 563.265 312.036 563.161 311.773 563.161H311.278C310.491 563.161 309.737 563.473 309.18 564.03C308.623 564.587 308.311 565.341 308.311 566.129V568.107H306.332C306.07 568.107 305.818 568.211 305.633 568.397C305.447 568.582 305.343 568.834 305.343 569.096C305.343 569.359 305.447 569.61 305.633 569.796C305.818 569.981 306.07 570.086 306.332 570.086H308.311V575.96C306.398 575.719 304.639 574.788 303.364 573.342C302.089 571.896 301.386 570.035 301.386 568.107ZM309.3 578C314.764 578 319.193 573.571 319.193 568.107C319.193 562.643 314.764 558.214 309.3 558.214C303.836 558.214 299.407 562.643 299.407 568.107C299.407 573.571 303.836 578 309.3 578Z" fill="white"/>
<path d="M339.519 565.074C340.158 565.074 340.676 564.556 340.676 563.917C340.676 563.278 340.158 562.76 339.519 562.76C338.88 562.76 338.362 563.278 338.362 563.917C338.362 564.556 338.88 565.074 339.519 565.074Z" fill="white"/>
<path d="M341.768 565.952V572.37H343.761V569.196C343.761 568.358 343.919 567.547 344.957 567.547C345.981 567.547 345.994 568.505 345.994 569.249V572.37H347.988V568.851C347.988 567.122 347.616 565.793 345.595 565.793C344.625 565.793 343.974 566.325 343.708 566.829H343.681V565.952H341.768ZM338.521 565.952H340.517V572.37H338.521V565.952Z" fill="white"/>
<circle cx="343.175" cy="568.107" r="9.02906" stroke="white" stroke-width="1.72733"/>
</g>
<defs>
<linearGradient id="paint0_linear_811_305" x1="257.531" y1="-3.09111" x2="257.531" y2="433.612" gradientUnits="userSpaceOnUse">
<stop offset="0.290451" stop-color="#6B05FE"/>
<stop offset="0.910253" stop-color="#6400F5" stop-opacity="0"/>
</linearGradient>
<linearGradient id="paint1_linear_811_305" x1="248.121" y1="56.5685" x2="248.121" y2="493.272" gradientUnits="userSpaceOnUse">
<stop offset="0.243575" stop-color="#04B6FE"/>
<stop offset="0.88942" stop-color="white" stop-opacity="0"/>
</linearGradient>
<linearGradient id="paint2_linear_811_305" x1="24.7297" y1="463.508" x2="24.7297" y2="530.238" gradientUnits="userSpaceOnUse">
<stop offset="0.290451" stop-color="#6B05FE"/>
<stop offset="0.910253" stop-color="#6400F5" stop-opacity="0"/>
</linearGradient>
<linearGradient id="paint3_linear_811_305" x1="23.2921" y1="472.625" x2="23.2921" y2="539.355" gradientUnits="userSpaceOnUse">
<stop offset="0.243575" stop-color="#04B6FE"/>
<stop offset="0.88942" stop-color="white" stop-opacity="0"/>
</linearGradient>
<clipPath id="clip0_811_305">
<rect width="19.7834" height="19.7834" fill="white" transform="translate(130.032 558.216)"/>
</clipPath>
</defs>
</svg>
